<?xml version="1.0" encoding="UTF-8"?>
<svg version="1.1" xmlns="http://www.w3.org/2000/svg" width="5000" height="5000">
<path d="M0 0 C1.04285156 -0.00100708 2.08570312 -0.00201416 3.16015625 -0.00305176 C19.78086027 0.00778229 35.98297255 0.73603861 52.4375 3.25 C53.41364258 3.38921875 54.38978516 3.5284375 55.39550781 3.671875 C115.80981706 12.38605917 170.08922896 41.28454713 214.5234375 82.5546875 C217.19682527 85.027392 219.90286833 87.45626381 222.625 89.875 C229.36813328 95.93733617 235.7287452 102.2805186 241.6328125 109.1640625 C243.65401276 111.50025501 245.73128839 113.77964851 247.8125 116.0625 C278.95870151 150.66939057 304.00108199 191.09159105 325.4375 232.25 C325.74022827 232.83011841 326.04295654 233.41023682 326.3548584 234.00793457 C367.85535863 313.6475071 394.93303622 400.4807926 442.4375 937.3125 C442.31211853 939.18406769 442.31211853 939.18406769 442.1842041 941.09344482 C441.2936543 954.1988976 440.3082148 967.24330806 438.4375 980.25 C438.97760712 980.42604767 439.51771423 980.60209534 440.07418823 980.78347778 C445.72726202 982.64445865 451.31229579 984.64825181 456.8828125 986.7421875 C457.78574036 987.08027939 458.68866821 987.41837128 459.61895752 987.76670837 C462.60087782 988.8841787 465.58175317 990.00440359 468.5625 991.125 C469.59916809 991.51416595 470.63583618 991.90333191 471.70391846 992.30429077 C494.82272738 1000.98455032 517.89263479 1009.79219381 540.95294189 1018.6264801 C547.77363227 1021.23728277 554.60223528 1023.82606199 561.4375 1026.3984375 C563.82545803 1027.29997939 566.21321615 1028.20204832 568.60089111 1029.1043396 C570.06018731 1029.65408771 571.52041773 1030.20136314 572.98162842 1030.7460022 C574.93543233 1031.47429662 576.88596526 1032.21074013 578.8359375 1032.94921875 C579.90505371 1033.34971436 580.97416992 1033.75020996 582.07568359 1034.1628418 C584.4375 1035.25 584.4375 1035.25 585.4375 1037.25 C584.50171005 1039.60981813 583.50402192 1041.94631264 582.4375 1044.25 C575.91374616 1042.93057068 569.83058748 1041.11656238 563.58984375 1038.8203125 C562.64498611 1038.4779808 561.70012848 1038.13564911 560.72663879 1037.78294373 C557.60761715 1036.6518755 554.49137616 1035.51333458 551.375 1034.375 C548.02928163 1033.15995332 544.68280907 1031.94700022 541.33627319 1030.73420715 C538.99460428 1029.88551411 536.65315702 1029.03620928 534.31192017 1028.18632507 C522.15589949 1023.77627781 509.97550561 1019.43527219 497.79373169 1015.09698486 C477.63676325 1007.91737937 457.49766318 1000.69641659 437.4375 993.25 C437.37804199 993.91789551 437.31858398 994.58579102 437.25732422 995.27392578 C435.47509638 1014.91125389 433.0571678 1034.43194165 430.41943359 1053.97119141 C430.28896133 1054.94548599 430.15848907 1055.91978058 430.02406311 1056.92359924 C429.77758429 1058.76168135 429.5282661 1060.59938575 429.27561951 1062.43663025 C428.38552518 1068.3276256 428.38552518 1068.3276256 428.4375 1074.25 C430.68444616 1076.01847537 430.68444616 1076.01847537 433.6875 1077.375 C450.22127151 1086.39165043 462.71144373 1102.0718312 468.65625 1119.90625 C475.00159779 1141.4804325 474.2262024 1163.36777454 463.77441406 1183.49951172 C453.28766212 1202.56072554 437.09846838 1216.13463539 416.3125 1222.6875 C394.81656818 1228.78621857 372.58362465 1225.98301058 353.0703125 1215.390625 C348.06638532 1212.52901226 343.68617704 1209.13757791 339.4375 1205.25 C338.41462891 1204.36441406 338.41462891 1204.36441406 337.37109375 1203.4609375 C322.26569381 1189.56751682 314.41446107 1169.11006959 313.3125 1148.96484375 C312.75921101 1127.69779806 320.04353035 1107.9695297 333.75 1091.875 C346.35435171 1078.72547737 363.74027229 1068.62378894 382.16015625 1067.01171875 C384.375 1067 384.375 1067 387.4375 1067.25 C387.49160538 1066.53384521 387.54571075 1065.81769043 387.60145569 1065.07983398 C388.20321028 1057.46122609 389.03886301 1049.89386815 389.99609375 1042.3125 C390.14530777 1041.11173828 390.29452179 1039.91097656 390.44825745 1038.67382812 C391.07888839 1033.59965083 391.7150883 1028.52617578 392.35083008 1023.45263672 C394.23359132 1008.40029695 396.03183968 993.35507848 397.4375 978.25 C396.76117523 978.07476807 396.08485046 977.89953613 395.38803101 977.71899414 C388.8964323 975.99864979 382.59345873 973.99490113 376.2890625 971.6875 C375.34001038 971.3442569 374.39095825 971.00101379 373.41314697 970.64736938 C371.36635897 969.90655602 369.32027617 969.16379182 367.27484131 968.41925049 C363.98036275 967.22010311 360.68404936 966.02612834 357.38720703 964.83349609 C353.91244736 963.57643512 350.43780432 962.31906161 346.9637146 961.06015015 C334.75675214 956.63685464 322.53557943 952.25352044 310.3125 947.875 C308.10586697 947.08408998 305.89924267 946.29315558 303.69262695 945.50219727 C288.73035256 940.1401677 273.76239932 934.79411873 258.79302979 929.45193481 C234.99077054 920.95739566 211.20526514 912.4174613 187.42951965 903.84902954 C173.72690769 898.91167389 160.01956087 893.9874872 146.3125 889.0625 C144.95852605 888.5760005 143.60455266 888.08949944 142.25057983 887.60299683 C136.782579 885.63826814 131.31457433 883.67355011 125.84654236 881.70890808 C116.91157585 878.4985664 107.97693026 875.28733297 99.04249954 872.07550049 C92.9450442 869.88354319 86.84753683 867.69173063 80.75 865.5 C80.08357986 865.26045845 79.41715973 865.0209169 78.73054504 864.77411652 C58.75461756 857.5940086 38.77463515 850.42528619 18.79141235 843.26550293 C1.9683143 837.23759328 -14.84792148 831.19083099 -31.6605835 825.13388062 C-47.78902269 819.32377069 -63.92392428 813.53189064 -80.0625 807.75 C-103.50375117 799.35143016 -126.9342457 790.92324216 -150.36083984 782.48388672 C-159.71689353 779.11353975 -169.07379929 775.74555955 -178.43063354 772.37738037 C-183.65950725 770.49513869 -188.88835245 768.61281781 -194.1171875 766.73046875 C-195.66837532 766.17205292 -195.66837532 766.17205292 -197.25090027 765.60235596 C-203.36012111 763.4030281 -209.46921125 761.20333765 -215.57818604 759.00332642 C-239.9030817 750.24327765 -264.23124657 741.49237155 -288.5625 732.75 C-313.89110554 723.6492736 -339.21610588 714.53858083 -364.53808594 705.41943359 C-370.69451177 703.20238366 -376.85113658 700.98588661 -383.0078125 698.76953125 C-384.04188232 698.39727417 -385.07595215 698.02501709 -386.14135742 697.64147949 C-389.28173518 696.51097772 -392.42211682 695.38048672 -395.5625 694.25 C-418.7445304 685.90484721 -418.7445304 685.90484721 -429.57769775 682.00349426 C-433.60058506 680.55475516 -437.6235383 679.10619918 -441.64648438 677.65762329 C-444.68367256 676.56387833 -447.72074444 675.46981087 -450.7578125 674.37573242 C-462.21269405 670.25016743 -473.6710239 666.13436054 -485.13286972 662.02819252 C-489.47054882 660.47394176 -493.80777659 658.91843178 -498.14501381 657.36294842 C-501.66734127 656.0998797 -505.18999386 654.83773446 -508.71343994 653.57778931 C-523.40466157 648.32397154 -538.0707234 643.03664691 -552.5625 637.25 C-552.83473389 638.5297168 -553.10696777 639.80943359 -553.38745117 641.12792969 C-554.51909346 646.21353645 -555.91392069 651.20032793 -557.36328125 656.203125 C-557.92885666 658.1799945 -558.49376738 660.15705426 -559.05810547 662.13427734 C-559.35440857 663.17106628 -559.65071167 664.20785522 -559.95599365 665.27606201 C-565.66434448 685.30135251 -570.98379685 705.39977811 -575.9375 725.625 C-576.36695419 727.36916199 -576.36695419 727.36916199 -576.80508423 729.14855957 C-577.61325443 732.43871026 -578.41389719 735.7305748 -579.2109375 739.0234375 C-579.57083519 740.49346725 -579.57083519 740.49346725 -579.93800354 741.99319458 C-580.26138954 743.3450032 -580.26138954 743.3450032 -580.59130859 744.72412109 C-580.78002533 745.50596771 -580.96874207 746.28781433 -581.16317749 747.09335327 C-581.68387623 749.5399737 -581.68387623 749.5399737 -581.5625 753.25 C-580.52802734 753.77787109 -580.52802734 753.77787109 -579.47265625 754.31640625 C-559.20294942 764.96564866 -545.10052277 781.21040232 -537.62890625 802.96875 C-531.43379343 824.54789898 -534.67118252 847.04352945 -545.14916992 866.66821289 C-548.99883869 873.45071338 -553.99946229 878.83839168 -559.5625 884.25 C-560.33851562 885.01183594 -561.11453125 885.77367187 -561.9140625 886.55859375 C-577.68759989 901.30099884 -597.49958551 906.31489454 -618.5625 906.25 C-640.4361509 905.01960714 -659.44193202 895.25374208 -674.3125 879.375 C-687.09809529 864.51544897 -694.00146872 846.6319777 -693.875 827 C-693.87008545 826.08613525 -693.8651709 825.17227051 -693.86010742 824.23071289 C-693.49216912 802.7940612 -684.57079219 782.60224841 -669.13085938 767.68164062 C-658.13695171 757.64610598 -645.52994061 751.54427191 -631.1171875 748.0859375 C-630.3862085 747.90699951 -629.65522949 747.72806152 -628.90209961 747.54370117 C-627.12313113 747.10877756 -625.34294059 746.67885744 -623.5625 746.25 C-623.26706299 744.98671875 -622.97162598 743.7234375 -622.66723633 742.421875 C-617.03037663 718.3784795 -611.21857426 694.39720198 -604.75 670.5625 C-604.36033554 669.12064331 -604.36033554 669.12064331 -603.96279907 667.6496582 C-601.044841 656.87829178 -597.9786998 646.15947947 -594.73828125 635.48046875 C-594.28596382 633.98922234 -594.28596382 633.98922234 -593.82450867 632.46784973 C-591.69182281 625.50864562 -591.69182281 625.50864562 -590.5625 623.25 C-591.17162231 623.07263809 -591.78074463 622.89527618 -592.4083252 622.71253967 C-598.4328234 620.93515677 -604.36530988 618.97948357 -610.28125 616.87109375 C-611.19570892 616.54726715 -612.11016785 616.22344055 -613.05233765 615.88980103 C-616.05664982 614.82495323 -619.05961973 613.7563785 -622.0625 612.6875 C-624.20065922 611.92823538 -626.33884331 611.16904081 -628.47705078 610.40991211 C-648.67634063 603.23216997 -668.84601015 595.97226847 -689.0098877 588.695755 C-696.6899676 585.92444897 -704.37187414 583.15824978 -712.0546875 580.39453125 C-713.16983734 579.99333572 -714.28498718 579.5921402 -715.43392944 579.17878723 C-719.75470189 577.62432769 -724.07547905 576.06988147 -728.39642334 574.51589966 C-742.46255791 569.45672522 -756.5176447 564.36796127 -770.5625 559.25 C-771.52353055 562.13309165 -771.73258249 564.11852799 -771.82332718 567.12476343 C-771.85613311 568.1384585 -771.88893904 569.15215357 -771.92273909 570.19656667 C-771.95432865 571.316164 -771.98591822 572.43576133 -772.01846504 573.58928585 C-772.05564591 574.77986952 -772.09282677 575.97045319 -772.13113433 577.19711515 C-772.23414626 580.52545198 -772.33305034 583.85386647 -772.43028674 587.18237414 C-772.53705299 590.80291593 -772.64908056 594.42329543 -772.76045406 598.04369789 C-772.95556866 604.41005168 -773.14729113 610.77650076 -773.33684158 617.14302254 C-773.61948831 626.63577286 -773.9073398 636.12836033 -774.19627916 645.62092096 C-774.68591098 661.7115691 -775.17130787 677.80234247 -775.65445328 693.89318657 C-776.1425753 710.14885734 -776.63282702 726.40446189 -777.12566757 742.65999031 C-777.15669428 743.68337133 -777.187721 744.70675235 -777.21968791 745.76114492 C-777.37764614 750.97079695 -777.53564399 756.18044779 -777.69365917 761.3900981 C-778.82189346 798.58881742 -779.94615108 835.78765598 -781.06787109 872.98657227 C-781.13582511 875.24004732 -781.20377925 877.49352237 -781.27173351 879.74699742 C-781.3053735 880.86255751 -781.33901348 881.97811759 -781.37367286 883.12748253 C-781.54321924 888.74990547 -781.71276937 894.37232829 -781.88232422 899.99475098 C-781.93256351 901.66069619 -781.93256351 901.66069619 -781.98381774 903.36029687 C-783.24071075 945.03779666 -784.50100509 986.71519376 -785.76171875 1028.39257812 C-785.79341142 1029.44029245 -785.8251041 1030.48800678 -785.85775715 1031.56747002 C-786.86536835 1064.87703369 -787.8737574 1098.18657379 -788.8828125 1131.49609375 C-788.91582724 1132.58595911 -788.94884198 1133.67582447 -788.98285716 1134.79871605 C-792.4625773 1249.66830692 -795.95695729 1364.53744883 -819.82744548 2126.36729213 C-819.90225861 2128.70827327 -819.97706931 2131.04925448 -820.05187914 2133.39023573 C-822.51533412 2210.47767776 -824.98207286 2287.56501465 -830.67012161 2465.14072012 C-831.08911404 2478.21548146 -831.50809131 2491.29024328 -831.92706179 2504.36500532 C-832.00558217 2506.8153744 -832.0841034 2509.26574345 -832.16262469 2511.71611251 C-833.3464389 2548.6589312 -834.52968284 2585.601768 -835.71083164 2622.54467201 C-835.74798187 2623.70661032 -835.74798187 2623.70661032 -835.78588261 2624.89202214 C-836.30453242 2641.11382992 -836.82304884 2657.33564196 -837.34137975 2673.55745994 C-837.5835613 2681.13679429 -837.82578105 2688.71612741 -838.06802559 2696.29545975 C-838.09183882 2697.04054154 -838.11565205 2697.78562334 -838.14018689 2698.55328337 C-838.8994494 2722.30886641 -839.66112382 2746.06437133 -840.42422764 2769.81983125 C-841.20442552 2794.10749155 -841.98228576 2818.3952255 -842.75731044 2842.68305145 C-843.20170982 2856.60712581 -843.64807617 2870.53113387 -844.09727723 2884.45505416 C-844.39686234 2893.74725017 -844.69389143 2903.03952562 -844.98886631 2912.33186911 C-845.15657298 2917.61267262 -845.32536531 2922.89343493 -845.49730801 2928.17410235 C-846.47430876 2957.20527516 -846.47430876 2957.20527516 -846.5625 2986.25 C-845.95161965 2984.81921361 -845.34087133 2983.38837085 -844.73017883 2981.95750427 C-844.39005422 2981.16070975 -844.0499296 2980.36391523 -843.69949818 2979.54297543 C-842.98373555 2977.86157045 -842.27397616 2976.17760807 -841.56713867 2974.49243164 C-841.2497876 2973.76403076 -840.93243652 2973.03562988 -840.60546875 2972.28515625 C-840.28602295 2971.5362915 -839.96657715 2970.78742676 -839.63745117 2970.01586914 C-838.5625 2968.25 -838.5625 2968.25 -835.5625 2967.25 C-833.10839844 2968.15527344 -833.10839844 2968.15527344 -830.171875 2969.609375 C-829.08253662 2970.14216064 -827.99319824 2970.67494629 -826.87084961 2971.22387695 C-825.69659424 2971.80999756 -824.52233887 2972.39611816 -823.3125 2973 C-822.08069179 2973.60549489 -820.84834388 2974.20989296 -819.61547852 2974.81323242 C-817.10962243 2976.04051923 -814.60596769 2977.27212265 -812.10400391 2978.50732422 C-807.25275325 2980.89449002 -802.37965015 2983.23407329 -797.5 2985.5625 C-796.60466553 2985.99103271 -795.70933105 2986.41956543 -794.78686523 2986.86108398 C-788.86574442 2989.69013741 -782.93176101 2992.49121598 -776.9921875 2995.28125 C-776.24145462 2995.63398483 -775.49072174 2995.98671967 -774.71723938 2996.35014343 C-770.99158056 2998.10019723 -767.26498315 2999.84820854 -763.53686523 3001.59301758 C-762.84152176 3001.91920578 -762.14617828 3002.24539398 -761.42976379 3002.58146667 C-760.06471172 3003.22176479 -758.69898998 3003.86063742 -757.33256531 3004.4980011 C-752.15991803 3006.92513175 -747.11096243 3009.55391729 -742.10229492 3012.30541992 C-739.00074966 3013.45892166 -737.67802496 3013.30902505 -734.5625 3012.25 C-731.78905958 3010.82969976 -731.78905958 3010.82969976 -728.93359375 3008.99609375 C-727.83055908 3008.31458252 -726.72752441 3007.63307129 -725.59106445 3006.9309082 C-725.00700836 3006.5658316 -724.42295227 3006.200755 -723.82119751 3005.82461548 C-720.68636755 3003.86729693 -717.53456037 3001.9377313 -714.3828125 3000.0078125 C-713.40913475 2999.41094383 -713.40913475 2999.41094383 -712.41578674 2998.80201721 C-705.80661662 2994.76374274 -699.10830042 2990.88933726 -692.375 2987.0625 C-691.5041275 2986.56736404 -691.5041275 2986.56736404 -690.61566162 2986.06222534 C-686.60267397 2983.78307038 -682.58342066 2981.51513425 -678.5625 2979.25 C-676.9837207 2978.35933838 -676.9837207 2978.35933838 -675.37304688 2977.45068359 C-668.11590674 2973.36027479 -660.84379912 2969.29723066 -653.5625 2965.25 C-652.42200195 2964.61594238 -651.28150391 2963.98188477 -650.10644531 2963.32861328 C-633.50439591 2954.10583982 -616.81878 2945.0523148 -600.05957031 2936.11767578 C-596.52337053 2934.22910218 -592.99138592 2932.33288562 -589.4609375 2930.43359375 C-576.12355391 2923.26138835 -562.74057274 2916.18619179 -549.29296875 2909.22265625 C-544.28705879 2906.62997035 -539.29678368 2904.00895775 -534.3125 2901.375 C-517.1341108 2892.31207438 -499.89552077 2883.35743211 -482.49584961 2874.72631836 C-477.34944624 2872.16601559 -472.25935443 2869.51695583 -467.1875 2866.8125 C-457.47719108 2861.6517019 -447.64533824 2856.73424372 -437.8125 2851.8125 C-437.03368469 2851.42184357 -436.25486938 2851.03118713 -435.45245361 2850.62869263 C-425.15090696 2845.46437497 -414.7940927 2840.42851095 -404.3903656 2835.47337341 C-394.67003278 2830.83828228 -385.00712141 2826.08900976 -375.34451294 2821.33508301 C-360.60621278 2814.08839237 -345.86003281 2806.88304258 -330.93164062 2800.03515625 C-321.73856731 2795.81592667 -312.60715278 2791.47443171 -303.47879028 2787.11730957 C-287.08677443 2779.29641927 -270.63095026 2771.64157833 -254.07041931 2764.18461609 C-248.58039134 2761.71219889 -243.09800185 2759.22323486 -237.6171875 2756.73046875 C-145.27247498 2714.75643727 -51.66393303 2675.58379916 113.55651855 2614.25915527 C116.64530641 2613.1772092 119.73327354 2612.09293735 122.82128906 2611.00878906 C217.21145495 2577.90729201 313.29549537 2548.95008359 411.4375 2529.25 C412.80521545 2528.97542969 412.80521545 2528.97542969 414.20056152 2528.6953125 C456.24767282 2520.29080295 498.69140611 2513.77760729 541.4375 2510.25 C542.15500427 2510.19048157 542.87250854 2510.13096313 543.61175537 2510.06964111 C579.62225036 2507.13082644 616.48161976 2506.48723477 652.4375 2510.25 C654.29785889 2510.44335938 654.29785889 2510.44335938 656.19580078 2510.640625 C710.95528539 2516.56131011 772.60119214 2532.15723154 811.4375 2574.25 C807.70604306 2574.25 807.44886996 2573.55827075 804.875 2571 C772.21359944 2541.22202967 726.08661367 2528.59707601 683.4375 2522.25 C682.34147461 2522.08338867 681.24544922 2521.91677734 680.11621094 2521.74511719 C639.39872998 2515.89023678 596.22179708 2517.52700872 555.4375 2522.25 C554.16338257 2522.39565399 554.16338257 2522.39565399 552.86352539 2522.54425049 C456.30380843 2533.65880022 362.06299868 2559.39779267 15.4375 2689.25 C14.64923828 2689.59546875 13.86097656 2689.9409375 13.04882812 2690.296875 C-21.08047219 2705.25983703 -55.00675305 2720.63144342 -88.74316406 2736.45947266 C-91.34033451 2737.6777382 -93.93871057 2738.89337981 -96.53808594 2740.10693359 C-117.15649505 2749.73300463 -137.6521477 2759.59373853 -158.09008789 2769.59698486 C-163.91460451 2772.44703987 -169.74478702 2775.28523578 -175.578125 2778.1171875 C-212.46456353 2795.97106003 -212.46456353 2795.97106003 -248.89160156 2814.73657227 C-254.7331151 2817.84126733 -260.63769708 2820.80777873 -266.5625 2823.75 C-274.15160118 2827.52120659 -281.68746269 2831.37454227 -289.17456055 2835.34423828 C-294.65829101 2838.25170047 -300.16177616 2841.11843927 -305.67504883 2843.96948242 C-315.64841081 2849.12927243 -325.55378336 2854.3907256 -335.39379883 2859.80029297 C-341.90580341 2863.37129755 -348.46870388 2866.8326597 -355.0625 2870.25 C-366.31846926 2876.09059318 -377.45580395 2882.13104147 -388.5625 2888.25 C-389.65804199 2888.85328125 -390.75358398 2889.4565625 -391.88232422 2890.078125 C-398.56652009 2893.76027965 -405.24769466 2897.44787474 -411.92730713 2901.13833618 C-416.27653096 2903.54086612 -420.62794234 2905.93939659 -424.98046875 2908.3359375 C-448.16462131 2921.10338639 -471.253422 2934.02986696 -494.21736145 2947.18960571 C-498.38008373 2949.57457715 -502.54650807 2951.95297989 -506.71484375 2954.328125 C-520.65835754 2962.27521097 -534.56109242 2970.28826408 -548.40771484 2978.40332031 C-551.18067746 2980.026497 -553.95586533 2981.64579068 -556.73217773 2983.26322937 C-572.35940584 2992.36892873 -587.88382233 3001.62782105 -603.32009888 3011.05348206 C-607.44063029 3013.5687997 -611.56809666 3016.0724321 -615.69921875 3018.5703125 C-630.73662917 3027.66552041 -645.70481855 3036.86301046 -660.5625 3046.25 C-662.10333252 3047.22235596 -662.10333252 3047.22235596 -663.67529297 3048.21435547 C-676.12480254 3056.08438181 -688.44872831 3064.10244169 -700.57275391 3072.46679688 C-701.42015137 3073.05138672 -702.26754883 3073.63597656 -703.140625 3074.23828125 C-703.87700195 3074.74915283 -704.61337891 3075.26002441 -705.37207031 3075.78637695 C-717.68326658 3084.01259425 -733.79398974 3087.72951028 -748.5625 3086.25 C-765.21153751 3082.84149459 -781.07534904 3075.02907873 -796.56591797 3068.26025391 C-806.56897141 3063.91168371 -816.75187901 3060.03105123 -826.9319458 3056.12036133 C-831.7749587 3054.25318027 -836.60442164 3052.35184997 -841.43359375 3050.44921875 C-843.02660605 3049.82249635 -844.61962302 3049.19578581 -846.21264648 3048.5690918 C-847.87082397 3047.91614136 -847.87082397 3047.91614136 -849.5625 3047.25 C-849.5625 3050.88 -849.5625 3054.51 -849.5625 3058.25 C-853.91061141 3059.69937047 -856.84224854 3057.74223107 -860.85546875 3056.0078125 C-861.69628494 3055.65335052 -862.53710114 3055.29888855 -863.40339661 3054.9336853 C-866.18952212 3053.75649212 -868.96965231 3052.56576802 -871.75 3051.375 C-873.7034138 3050.54667127 -875.65719506 3049.71920859 -877.61132812 3048.89257812 C-882.63629681 3046.76428716 -887.65647468 3044.62494648 -892.67523193 3042.48205566 C-897.04833964 3040.61596218 -901.42452632 3038.7571354 -905.80078125 3036.8984375 C-910.70327975 3034.81568983 -915.60541424 3032.7321064 -920.50585938 3030.64453125 C-932.56790228 3025.50812623 -944.65337214 3020.4293636 -956.75 3015.375 C-971.49099208 3009.21531514 -986.2210699 3003.03065602 -1000.9375 2996.8125 C-1001.86871674 2996.41903381 -1002.79993347 2996.02556763 -1003.7593689 2995.62017822 C-1008.47484056 2993.62755898 -1013.1901012 2991.63444093 -1017.90527344 2989.64111328 C-1023.5429958 2987.2579617 -1029.1815253 2984.87672458 -1034.8203125 2982.49609375 C-1035.74803467 2982.10442017 -1036.67575684 2981.71274658 -1037.6315918 2981.3092041 C-1040.44188092 2980.12277048 -1043.25218705 2978.93637717 -1046.0625 2977.75 C-1056.39285069 2973.38902938 -1066.7231854 2969.02802675 -1077.05133057 2964.66183472 C-1097.26288599 2956.1175283 -1117.48416444 2947.59766784 -1137.7300415 2939.13497925 C-1152.46628812 2932.97468424 -1167.18424874 2926.77194939 -1181.89550781 2920.55224609 C-1195.60601834 2914.75637488 -1209.32869291 2908.99043969 -1223.0625 2903.25 C-1237.74228519 2897.11416155 -1252.40783868 2890.94560161 -1267.0625 2884.75 C-1283.96141281 2877.60612441 -1300.87072022 2870.48757933 -1317.80249023 2863.421875 C-1319.54021228 2862.69663963 -1321.2779241 2861.97137979 -1323.015625 2861.24609375 C-1323.84675308 2860.8992453 -1324.67788116 2860.55239685 -1325.53419495 2860.19503784 C-1330.44412471 2858.14338807 -1335.3431207 2856.06843926 -1340.234375 2853.97265625 C-1341.33934326 2853.502229 -1342.44431152 2853.03180176 -1343.58276367 2852.54711914 C-1345.50554945 2851.72730044 -1347.42540921 2850.90055393 -1349.34106445 2850.06420898 C-1354.99283775 2847.66466873 -1360.50202139 2846.22882082 -1366.5625 2845.25 C-1366.5625 2844.26 -1366.5625 2843.27 -1366.5625 2842.25 C-1367.37796295 2841.99095886 -1367.37796295 2841.99095886 -1368.2098999 2841.72668457 C-1373.83408799 2839.90146046 -1379.26793819 2837.7918446 -1384.703125 2835.46875 C-1385.56626312 2835.1031749 -1386.42940125 2834.73759979 -1387.31869507 2834.36094666 C-1390.15129968 2833.16042077 -1392.98186684 2831.95516593 -1395.8125 2830.75 C-1397.82064353 2829.89814807 -1399.82894728 2829.04667379 -1401.83740234 2828.19555664 C-1406.00845355 2826.42761308 -1410.17881292 2824.65805273 -1414.34863281 2822.88720703 C-1423.95629318 2818.80810952 -1433.57178755 2814.74757043 -1443.1875 2810.6875 C-1444.11558472 2810.29546387 -1445.04366943 2809.90342773 -1445.99987793 2809.49951172 C-1459.67620113 2803.72273512 -1473.36499185 2797.97634635 -1487.0625 2792.25 C-1507.36420093 2783.76272117 -1527.63757472 2775.20922142 -1547.90527344 2766.64111328 C-1556.35282413 2763.07020423 -1564.80221639 2759.50365709 -1573.25146484 2755.93676758 C-1576.06484221 2754.74901116 -1578.87813775 2753.56106113 -1581.69140625 2752.37304688 C-1590.10959596 2748.81820317 -1598.5280766 2745.2640565 -1606.94804382 2741.71342468 C-1626.7947666 2733.34421764 -1646.63473776 2724.95930052 -1666.45758057 2716.53366089 C-1668.55502334 2715.64224266 -1670.65263663 2714.75122554 -1672.75042725 2713.86062622 C-1675.65839283 2712.62583476 -1678.56563274 2711.38935119 -1681.47265625 2710.15234375 C-1682.33710861 2709.78555511 -1683.20156097 2709.41876648 -1684.09220886 2709.04086304 C-1684.88943863 2708.70116486 -1685.6866684 2708.36146667 -1686.50805664 2708.01147461 C-1687.19839493 2707.71792587 -1687.88873322 2707.42437714 -1688.59999084 2707.12193298 C-1690.62076345 2706.22411384 -1692.58785746 2705.24450799 -1694.5625 2704.25 C-1694.00695536 2692.68019096 -1692.98862182 2681.24521052 -1691.57910156 2669.75024414 C-1691.37566759 2668.05923117 -1691.17268269 2666.36816412 -1690.97010231 2664.67704868 C-1690.41952466 2660.09209264 -1689.8625197 2655.50793838 -1689.30427313 2650.92391062 C-1688.70482227 2645.99246962 -1688.11127221 2641.06031772 -1687.51687622 2636.12826538 C-1686.35932567 2626.53197621 -1685.19592893 2616.9364046 -1684.03026378 2607.34109807 C-1683.07783298 2599.50041903 -1682.12752229 2591.65948556 -1681.17852783 2583.81838989 C-1670.56665255 2496.14540437 -1659.83201034 2408.4877221 -1648.88790131 2320.85556984 C-1648.67086578 2319.11771197 -1648.45385021 2317.3798516 -1648.23685455 2315.64198875 C-1636.44360633 2221.19309469 -1624.38839717 2126.77834317 -1368.34602642 311.13007069 C-1367.9380191 308.50334191 -1367.53014761 305.87659206 -1367.12229156 303.24983978 C-1365.49810064 292.79102319 -1363.8699234 282.3328354 -1362.2373457 271.87532473 C-1361.90220908 269.72729857 -1361.56765441 267.57918251 -1361.23325348 265.43104172 C-1360.62959787 261.55426016 -1360.02281275 257.67797254 -1359.41552734 253.80175781 C-1359.15261241 252.11094998 -1359.15261241 252.11094998 -1358.88438606 250.38598442 C-1358.72332815 249.3616839 -1358.56227024 248.33738338 -1358.39633179 247.28204346 C-1358.25835363 246.39978718 -1358.12037548 245.5175309 -1357.97821617 244.60853958 C-1357.59862581 242.45495749 -1357.1238821 240.36261133 -1356.5625 238.25 C-1352.23156274 239.6008264 -1348.24963163 241.26948399 -1344.1796875 243.26953125 C-1343.57720184 243.56382523 -1342.97471619 243.8581192 -1342.35397339 244.16133118 C-1341.05797227 244.79449148 -1339.76271506 245.42917634 -1338.46813965 246.06524658 C-1334.96495984 247.78566903 -1331.45551093 249.49317139 -1327.9453125 251.19921875 C-1327.23165527 251.5461377 -1326.51799805 251.89305664 -1325.78271484 252.25048828 C-1319.33178568 255.37794354 -1312.82893369 258.38664973 -1306.3125 261.375 C-1291.17826411 268.33486297 -1276.24106553 275.69338962 -1261.28387451 283.02384949 C-1260.38195374 283.46586197 -1259.48003296 283.90787445 -1258.55078125 284.36328125 C-1257.22037811 285.01536308 -1257.22037811 285.01536308 -1255.86309814 285.68061829 C-1248.55326816 289.26073466 -1241.21984018 292.78794463 -1233.86938477 296.28393555 C-1225.62180309 300.21014016 -1217.40451258 304.19784535 -1209.1875 308.1875 C-1189.02626333 317.97424618 -1168.82962247 327.68411144 -1148.5625 337.25 C-1149.12304661 340.61327963 -1149.98091038 343.24112219 -1151.5625 346.25 C-1157.97966726 344.41411613 -1164.20857909 342.3393681 -1170.40234375 339.85546875 C-1171.24835648 339.52010605 -1172.0943692 339.18474335 -1172.96601868 338.83921814 C-1175.81236443 337.70950209 -1178.65618974 336.57358209 -1181.5 335.4375 C-1183.57443568 334.61219446 -1185.64898392 333.78717177 -1187.72363281 332.96240234 C-1193.66145845 330.59992645 -1199.59664376 328.23086992 -1205.53118896 325.86016846 C-1209.79199976 324.15811736 -1214.05347232 322.45772629 -1218.31494141 320.75732422 C-1254.36461621 306.3713333 -1290.3938797 291.93569297 -1326.37294006 277.37390137 C-1327.35575722 276.97614376 -1328.33857438 276.57838615 -1329.35117388 276.16857529 C-1331.75495607 275.19573371 -1334.15873128 274.22287488 -1336.5625 273.25 C-1336.71503015 274.88180867 -1336.71503015 274.88180867 -1336.87064171 276.54658318 C-1343.3307006 345.63547756 -1349.97355998 414.70443498 -1356.82823706 483.75528097 C-1357.19288541 487.42926016 -1357.55729805 491.10326267 -1357.92164993 494.77727127 C-1370.02498657 616.81308504 -1382.57032098 738.80206465 -1523.5625 2000.25 C-1523.68041019 2001.23907695 -1523.79832039 2002.2281539 -1523.91980362 2003.24720287 C-1535.10265533 2097.05051412 -1546.57825773 2190.81727128 -1593.5 2562.375 C-1593.6417215 2563.46913098 -1593.783443 2564.56326196 -1593.9294591 2565.69054842 C-1595.79568968 2580.09740292 -1597.66538752 2594.50380334 -1599.53992033 2608.90957999 C-1599.89861959 2611.66668709 -1600.2570395 2614.4238304 -1600.6154213 2617.18097878 C-1601.16492543 2621.40738666 -1601.71562589 2625.63363693 -1602.26734769 2629.85975587 C-1602.46607709 2631.38306001 -1602.66446218 2632.90640912 -1602.86246932 2634.42980731 C-1603.13079622 2636.49347046 -1603.40047079 2638.55695307 -1603.67051697 2640.62039185 C-1603.81976592 2641.76460665 -1603.96901487 2642.90882145 -1604.12278652 2644.08770943 C-1604.54896064 2647.15262885 -1605.03853862 2650.20041704 -1605.5625 2653.25 C-1605.01541382 2653.42228622 -1604.46832764 2653.59457245 -1603.90466309 2653.77207947 C-1598.35032123 2655.56591273 -1593.04083472 2657.67708856 -1587.71875 2660.06640625 C-1586.88915771 2660.43467026 -1586.05956543 2660.80293427 -1585.20483398 2661.18235779 C-1583.42049896 2661.97498365 -1581.63699231 2662.76947654 -1579.85424805 2663.56567383 C-1576.02084002 2665.2777171 -1572.18343361 2666.98071443 -1568.34631348 2668.68441772 C-1566.3564362 2669.56807415 -1564.36677329 2670.45221343 -1562.37731934 2671.33682251 C-1553.45499263 2675.30322285 -1544.51633459 2679.23175424 -1535.57281494 2683.15008545 C-1515.35262625 2692.0097227 -1495.15925251 2700.9296483 -1474.96972656 2709.85888672 C-1466.89525636 2713.42978956 -1458.81936911 2716.99748531 -1450.74359131 2720.56542969 C-1448.07006961 2721.74665556 -1445.39659805 2722.92799484 -1442.72314453 2724.109375 C-1434.51242631 2727.737611 -1426.30153239 2731.36544776 -1418.0900116 2734.99186707 C-1397.57015786 2744.05399489 -1377.05398914 2753.12387199 -1356.5625 2762.25 C-1354.91967012 2754.63788616 -1353.76915285 2747.00781814 -1352.74971008 2739.28994751 C-1352.57768424 2738.00775599 -1352.4056584 2736.72556447 -1352.22841966 2735.40451866 C-1351.75144733 2731.84870595 -1351.27853211 2728.29236383 -1350.80628429 2724.73592101 C-1350.28955642 2720.85008213 -1349.76901468 2716.96475384 -1349.24896717 2713.0793581 C-1348.33413918 2706.24047164 -1347.42174654 2699.40126367 -1346.51092911 2692.56184196 C-1345.1447859 2682.30343549 -1343.77485627 2672.04553709 -1342.40419236 2661.78773379 C-1340.06520971 2644.28237184 -1337.72932494 2626.77659777 -1335.39511108 2609.27059937 C-1333.03598574 2591.57786952 -1330.67544437 2573.88532947 -1328.31314087 2556.19302368 C-1328.16435345 2555.07868438 -1328.01556604 2553.96434508 -1327.86226992 2552.81623792 C-1327.10329325 2547.13195315 -1326.3442933 2541.44767149 -1325.58528531 2535.7633909 C-1320.04667605 2494.28386344 -1314.51128965 2452.80390638 -1308.97753906 2411.32373047 C-1303.35693616 2369.19259745 -1297.73500973 2327.06164143 -1292.11140384 2284.93090915 C-1291.8347545 2282.85831668 -1291.55810593 2280.78572411 -1291.28145756 2278.71313152 C-1289.61006334 2266.19139546 -1287.93865247 2253.66966162 -1286.26722127 2241.1479305 C-1282.22557918 2210.86947274 -1278.18410607 2180.59099243 -1274.14275932 2150.31249524 C-1273.85910465 2148.18730364 -1273.57544959 2146.0621121 -1273.29179452 2143.93692055 C-1267.38202174 2099.65986874 -1261.47305264 2055.38270972 -1255.56469727 2011.10546875 C-1255.47048672 2010.39945492 -1255.37627617 2009.69344109 -1255.27921076 2008.9660329 C-1253.10846282 1992.69844601 -1250.93773666 1976.4308562 -1248.76701927 1960.16326523 C-1236.78472347 1870.36664688 -1224.80090834 1780.57023175 -1204.9154856 1631.63551369 C-1203.6911744 1622.4663767 -1202.4668786 1613.29723766 -1201.24258298 1604.12809858 C-1197.50218612 1576.11508958 -1193.76175995 1548.10208448 -1190.02125484 1520.08908993 C-1180.1131018 1445.88599855 -1170.20640298 1371.68271304 -1160.29985842 1297.47940691 C-1156.57257247 1269.56079913 -1152.84522773 1241.6421992 -1149.11783493 1213.72360569 C-1147.00741946 1197.91635069 -1144.89700921 1182.10909499 -1142.7865994 1166.30183923 C-1142.52265466 1164.32485751 -1142.25870988 1162.34787579 -1141.99476504 1160.37089407 C-1135.16820073 1109.2390234 -1128.34187668 1058.10712066 -1121.5159626 1006.97516318 C-1118.54967752 984.75514299 -1115.58336771 962.53512611 -1112.61694336 940.31512451 C-1112.47894365 939.28143743 -1112.34094394 938.24775034 -1112.19876242 937.18273941 C-1110.81764289 926.83746762 -1109.43651628 916.49219679 -1108.05538034 906.14692719 C-1107.37521581 901.05221604 -1106.69505345 895.95750461 -1106.01489258 890.86279297 C-1105.81444344 889.3613387 -1105.81444344 889.3613387 -1105.60994482 887.82955202 C-1103.77235281 874.06512767 -1101.9348694 860.30068883 -1100.09747982 846.53623745 C-1099.71690472 843.68524549 -1099.3363243 840.83425424 -1098.95574188 837.98326325 C-1098.70428975 836.09960191 -1098.45283762 834.21594056 -1098.2013855 832.33227921 C-1098.07760631 831.40503403 -1097.95382712 830.47778885 -1097.82629704 829.52244534 C-1097.08512549 823.97020096 -1096.34399923 818.41795053 -1095.60290265 812.86569615 C-1093.25331574 795.26291218 -1090.9029687 777.66023082 -1088.54926109 760.05799732 C-1087.66267744 753.42753024 -1086.77629277 746.79703656 -1085.88996649 740.16653508 C-1085.67353277 738.54744473 -1085.45708849 736.9283558 -1085.24063349 735.3092683 C-1082.39557295 714.02768101 -1079.56575103 692.74415118 -1076.75522526 671.45797563 C-1076.11728502 666.62732708 -1075.4779658 661.79686275 -1074.83759689 656.96653557 C-1074.75006369 656.30626056 -1074.66253049 655.64598554 -1074.57234477 654.9657022 C-1074.14126632 651.71445041 -1073.7099887 648.46322512 -1073.27856708 645.21201885 C-1072.30859755 637.89867695 -1071.34530673 630.584499 -1070.38746834 623.26955891 C-1069.81540528 618.91286055 -1069.2370008 614.55702287 -1068.65665913 610.20142031 C-1068.39333599 608.21484764 -1068.13273944 606.22791137 -1067.87507915 604.24059629 C-1067.52834829 601.56859977 -1067.17214604 598.89803836 -1066.81341553 596.22763062 C-1066.66615379 595.06487734 -1066.66615379 595.06487734 -1066.51591706 593.8786341 C-1066.02935748 590.33173705 -1065.58350593 588.2815089 -1063.5625 585.25 C-1065.25691794 608.70989642 -1067.64313208 632.10526116 -1069.9467434 655.51129359 C-1070.55686288 661.71564424 -1071.16434903 667.92025283 -1071.77217674 674.12482834 C-1072.8353616 684.97396091 -1073.90016845 695.82293311 -1074.96609306 706.6717968 C-1076.10611402 718.27491815 -1077.24512568 729.87813794 -1078.38292122 741.48147774 C-1078.45492201 742.21574399 -1078.52692281 742.95001025 -1078.60110545 743.706527 C-1078.96823863 747.45061755 -1079.33535409 751.19470984 -1079.70246223 754.93880285 C-1082.35494663 781.99090641 -1085.00949346 809.04280726 -1087.6651001 836.09460449 C-1090.31852952 863.1243606 -1092.9709303 890.15421736 -1095.62200928 917.1842041 C-1095.70505222 918.03089547 -1095.78809517 918.87758685 -1095.87365456 919.74993553 C-1096.88619933 930.07370655 -1097.89869523 940.39748236 -1098.91116895 950.72126034 C-1100.36255068 965.5203993 -1101.81399294 980.31953232 -1103.26543382 995.11866547 C-1103.60947102 998.62652717 -1103.95350625 1002.13438907 -1104.29753992 1005.64225112 C-1106.73796966 1030.52551595 -1109.17875851 1055.40874553 -1111.61981663 1080.29194872 C-1119.69897011 1162.64777508 -1127.77438247 1245.00396624 -1138.93937909 1358.99957526 C-1139.16027323 1361.2551007 -1139.38116836 1363.51062605 -1139.60206369 1365.76615137 C-1143.11189737 1401.60452459 -1146.6213398 1437.44293612 -1150.13057991 1473.28136747 C-1152.32294304 1495.67107017 -1154.51542883 1518.06076087 -1156.70803833 1540.45043945 C-1156.81719713 1541.56510714 -1156.81719713 1541.56510714 -1156.92856116 1542.70229337 C-1157.88520031 1552.47094413 -1158.8418465 1562.23959421 -1159.79849495 1572.00824407 C-1160.97773722 1584.04987337 -1162.15697385 1596.09150322 -1163.33621115 1608.13313301 C-1163.63129319 1611.14632496 -1163.92637547 1614.15951689 -1164.22145795 1617.17270879 C-1166.21156443 1637.494395 -1168.20163251 1657.81608497 -1170.19166477 1678.13777845 C-1177.67721138 1754.57823866 -1185.16356421 1831.01861986 -1194.74189708 1928.80890932 C-1202.26352024 2005.60095603 -1209.78504526 2082.39301236 -1279.5625 2795.25 C-1277.27649352 2796.77400432 -1275.3107951 2797.89717033 -1272.8425293 2799.01489258 C-1272.09749146 2799.35370453 -1271.35245361 2799.69251648 -1270.58483887 2800.04159546 C-1269.37301941 2800.58754868 -1269.37301941 2800.58754868 -1268.13671875 2801.14453125 C-1267.29089233 2801.527836 -1266.44506592 2801.91114075 -1265.5736084 2802.30606079 C-1262.80046457 2803.56131348 -1260.02536731 2804.81217187 -1257.25 2806.0625 C-1256.29646637 2806.49305695 -1255.34293274 2806.92361389 -1254.36050415 2807.36721802 C-1241.69684923 2813.0843829 -1229.00094581 2818.71114862 -1216.23583984 2824.19799805 C-1205.07648755 2829.00286431 -1193.97395544 2833.93242597 -1182.875 2838.875 C-1178.98830399 2840.60551983 -1175.10159434 2842.336009 -1171.21484375 2844.06640625 C-1170.24462784 2844.49838318 -1169.27441193 2844.93036011 -1168.27479553 2845.37542725 C-1158.17039137 2849.87263157 -1148.05509571 2854.34506846 -1137.9375 2858.8125 C-1136.61427231 2859.39683807 -1136.61427231 2859.39683807 -1135.26431274 2859.99298096 C-1130.81142919 2861.95931858 -1126.35839515 2863.92531508 -1121.90527344 2865.89111328 C-1113.85326914 2869.44582888 -1105.80270235 2873.00379789 -1097.75201416 2876.56149292 C-1093.27223378 2878.54112581 -1088.79236233 2880.52055257 -1084.3125 2882.5 C-1082.5208329 2883.29166568 -1080.72916623 2884.08333234 -1078.9375 2884.875 C-1078.050625 2885.266875 -1077.16375 2885.65875 -1076.25 2886.0625 C-1072.21875 2887.84375 -1072.21875 2887.84375 -1068.1875 2889.625 C-1066.85720261 2890.21280495 -1066.85720261 2890.21280495 -1065.50003052 2890.81248474 C-1063.70826038 2891.60419831 -1061.91649198 2892.39591584 -1060.12472534 2893.18763733 C-1055.64715616 2895.16611882 -1051.16955667 2897.14453164 -1046.69189453 2899.12280273 C-1038.61035145 2902.69338075 -1030.52903208 2906.26446067 -1022.44883728 2909.83808899 C-1003.7667761 2918.10058529 -985.07973104 2926.35143093 -966.375 2934.5625 C-965.60331482 2934.90129181 -964.83162964 2935.24008362 -964.03656006 2935.58914185 C-952.66212862 2940.58194111 -941.28178926 2945.56122927 -929.90112305 2950.53979492 C-928.40768056 2951.19314041 -926.91423929 2951.84648868 -925.42079926 2952.49983978 C-921.80138015 2954.08325849 -918.18194469 2955.66663978 -914.5625 2957.25 C-914.49834577 2955.76474527 -914.49834577 2955.76474527 -914.43289549 2954.2494854 C-906.13210884 2762.08073052 -906.13210884 2762.08073052 -899.88012695 2619.05493164 C-899.83224428 2617.96164188 -899.78436161 2616.86835213 -899.73502794 2615.74193238 C-898.33325363 2583.73695514 -896.92955251 2551.73206247 -895.5253465 2519.72719184 C-894.98533465 2507.41892688 -894.44551494 2495.11065351 -893.90569065 2482.80238033 C-890.7476542 2410.79828575 -887.58635045 2338.7943349 -884.42315997 2266.7904666 C-884.02629672 2257.75663327 -883.62945774 2248.72279888 -883.23263352 2239.68896384 C-880.16452168 2169.84252419 -877.09490562 2099.99615072 -843.92950115 1354.27802881 C-843.81246742 1351.68677854 -843.69543858 1349.09552805 -843.57841039 1346.50427753 C-839.89432149 1264.93210661 -836.19894044 1183.36044898 -831.09084313 1070.9004168 C-829.97834841 1046.41014401 -828.86660444 1021.91983722 -827.75543213 997.42950439 C-827.71786957 996.60162528 -827.680307 995.77374616 -827.64160618 994.9207798 C-827.29973088 987.3858236 -826.95786422 979.85086702 -826.6160058 972.31591005 C-823.05510316 893.82951312 -819.49314001 815.3431641 -805.5625 509.25 C-802.02653095 509.81644897 -798.74813555 510.39931167 -795.39550781 511.66674805 C-794.6198497 511.95691803 -793.84419159 512.24708801 -793.04502869 512.54605103 C-792.21032547 512.86472137 -791.37562225 513.18339172 -790.515625 513.51171875 C-789.16791771 514.01872818 -789.16791771 514.01872818 -787.79298401 514.53598022 C-784.7974558 515.66451069 -781.80500194 516.80097159 -778.8125 517.9375 C-776.68074982 518.74254882 -774.54882858 519.54714483 -772.41674805 520.35131836 C-766.66181437 522.5238569 -760.90968706 524.70372904 -755.15838623 526.88586426 C-751.55535157 528.25271183 -747.95182623 529.61825777 -744.34814453 530.98339844 C-732.0908133 535.6270054 -719.8356198 540.27621402 -707.58203125 544.9296875 C-696.15286673 549.26972563 -684.7183979 553.59553366 -673.28027344 557.91189575 C-657.23552943 563.9666895 -641.19672736 570.03699884 -625.16479492 576.12564087 C-623.01319183 576.94275106 -620.86150262 577.75963457 -618.7097168 578.57626343 C-605.9716858 583.41110425 -593.25158519 588.28803215 -580.5625 593.25 C-580.44431915 592.68220322 -580.32613831 592.11440643 -580.20437622 591.52940369 C-579.15765014 586.64186458 -577.91142512 581.93171325 -576.3046875 577.19140625 C-576.08504837 576.54216187 -575.86540924 575.89291748 -575.63911438 575.22399902 C-574.91184776 573.0845072 -574.1757411 570.94822845 -573.4375 568.8125 C-573.17917389 568.06201385 -572.92084778 567.31152771 -572.6546936 566.53829956 C-555.54746438 516.95810905 -535.43292238 468.45613634 -512.4921875 421.296875 C-510.39449396 416.98353455 -508.33888342 412.65436716 -506.32470703 408.30151367 C-502.16914633 399.3248616 -497.63735042 390.5740829 -492.96044922 381.85888672 C-491.49826847 379.13012957 -490.0480485 376.39519505 -488.59765625 373.66015625 C-480.96743338 359.34691058 -472.85390907 345.35200808 -464.48974609 331.45751953 C-462.71759767 328.50812936 -460.96035719 325.55044637 -459.20703125 322.58984375 C-441.42044509 292.74681059 -421.55767587 264.12116462 -400.37353516 236.60449219 C-398.78935888 234.54493489 -397.21113925 232.48107947 -395.63671875 230.4140625 C-384.87522353 216.30395919 -373.52651599 202.62462479 -361.58984375 189.4921875 C-359.82282801 187.53791576 -358.09336471 185.55940263 -356.375 183.5625 C-346.26050462 172.02247171 -335.52272068 161.10726125 -324.6875 150.25 C-324.10005005 149.65996185 -323.5126001 149.06992371 -322.90734863 148.46200562 C-316.63400605 142.16689426 -310.33287141 136.01483104 -303.5625 130.25 C-301.78679779 128.63032183 -300.01541693 127.00588282 -298.25 125.375 C-292.84758543 120.4542822 -287.26081141 115.82207447 -281.5625 111.25 C-280.44229484 110.33774711 -279.32252295 109.42496197 -278.203125 108.51171875 C-208.71830092 52.05055295 -125.51032327 10.20289265 -35.5625 1.25 C-34.65508057 1.1557373 -33.74766113 1.06147461 -32.81274414 0.96435547 C-21.89718816 -0.02998916 -10.95174056 0.00734494 0 0 Z M-230.89697266 123.9609375 C-233.41978829 125.91351248 -235.99450963 127.79493567 -238.5625 129.6875 C-261.9520774 147.25342078 -283.49693914 166.98599947 -304.12695312 187.68408203 C-306.08608656 189.64865201 -308.05061644 191.60771448 -310.015625 193.56640625 C-316.07793438 199.62551584 -322.03254563 205.69416348 -327.5625 212.25 C-329.01695517 213.85768373 -330.47470895 215.46239715 -331.9375 217.0625 C-335.83174618 221.37774576 -339.52904724 225.82091755 -343.18359375 230.33984375 C-345.29179309 232.91883965 -347.43524687 235.4590068 -349.60107422 237.98925781 C-354.97989713 244.2786319 -360.12706023 250.71532474 -365.109375 257.32421875 C-366.7444931 259.49118978 -368.3882027 261.65153562 -370.03125 263.8125 C-393.59224395 294.90536294 -414.98861024 327.51273906 -434.5625 361.25 C-435.05427734 362.09320801 -435.54605469 362.93641602 -436.05273438 363.80517578 C-458.33528228 402.05589136 -478.12553758 441.62369804 -495.69195557 482.24328613 C-497.02700663 485.32074591 -498.37992832 488.39024404 -499.73046875 491.4609375 C-514.78103681 525.87977901 -527.87825738 561.22100325 -539.875 596.8125 C-540.15915771 597.65095459 -540.44331543 598.48940918 -540.73608398 599.35327148 C-541.75317768 602.43030179 -542.5625 604.98697069 -542.5625 608.25 C-520.62891857 616.7233616 -498.66841616 625.12143893 -476.66723633 633.41772461 C-474.74038741 634.14434269 -472.81354838 634.87098702 -470.88671875 635.59765625 C-469.91037979 635.96585983 -468.93404083 636.33406342 -467.92811584 636.71342468 C-455.13279401 641.54104635 -442.34823937 646.39707198 -429.5625 651.25 C-412.23445056 657.82654886 -394.90278916 664.39329042 -377.5625 670.9375 C-360.82702275 677.2535118 -344.103344 683.60015773 -327.3840332 689.95883179 C-312.61720066 695.57455395 -297.84366101 701.17210476 -283.0625 706.75 C-267.22080572 712.72810356 -251.38869799 718.73099385 -235.5625 724.75 C-219.90262938 730.70559539 -204.23741061 736.64660044 -188.5625 742.5625 C-165.28843088 751.3469167 -142.02926933 760.17049878 -118.77102661 768.99671936 C-106.57193489 773.62612015 -94.37211166 778.2535917 -82.17221069 782.88085938 C-78.55920465 784.2512499 -74.94622379 785.6217068 -71.33325195 786.9921875 C-60.38303882 791.14583922 -49.43275462 795.29930322 -38.48217773 799.45199585 C-13.48819285 808.93026265 11.50416444 818.41275436 36.49072266 827.9105835 C53.30375176 834.30131861 70.11978838 840.68409779 86.9375 847.0625 C88.145271 847.52057037 89.35304199 847.97864075 90.59741211 848.45059204 C99.21069172 851.71728029 107.82408336 854.98367309 116.4375 858.25 C126.27090975 861.9789652 136.10427079 865.70805875 145.9375 869.4375 C147.14591553 869.89581207 148.35433105 870.35412415 149.59936523 870.82632446 C167.22705878 877.51219782 184.85196003 884.20538436 202.47460938 890.90454102 C218.37672323 896.94954014 234.28245104 902.98497005 250.18969727 909.01644897 C269.76487594 916.43871883 289.33682872 923.86921455 308.89770508 931.32910156 C318.3701102 934.94114122 327.84558275 938.54496474 337.32421875 942.140625 C339.55729507 942.98802813 341.79036799 943.83544024 344.0234375 944.68286133 C347.2625893 945.91203763 350.50187445 947.14085412 353.74169922 948.36825562 C356.73836488 949.50354339 359.73456808 950.64003888 362.73046875 951.77734375 C363.68956146 952.14127731 364.64865417 952.50521088 365.6368103 952.88017273 C370.75882662 954.82969339 375.86882005 956.80652914 380.96728516 958.81689453 C382.02845047 959.23516006 383.08961578 959.6534256 384.18293762 960.08436584 C386.2218904 960.89007406 388.2596156 961.69889758 390.29594421 962.51121521 C391.6582592 963.05009117 391.6582592 963.05009117 393.0480957 963.59985352 C393.84963577 963.91922379 394.65117584 964.23859406 395.477005 964.56764221 C397.40633503 965.35957083 397.40633503 965.35957083 399.4375 965.25 C401.0592846 947.05611185 402.56171575 928.86475889 403.5625 910.625 C403.6007489 909.93877563 403.6389978 909.25255127 403.67840576 908.54553223 C403.91516104 904.25300564 404.12670909 899.95976147 404.32348633 895.66522217 C404.40054298 894.03288344 404.48220691 892.40075668 404.56811523 890.76885986 C405.85549673 866.16117067 405.68180575 841.50863163 405.6875 816.875 C405.68808914 815.70831409 405.68867828 814.54162819 405.68928528 813.33958817 C405.70213383 777.25756639 405.29571014 741.34189522 402.66210938 705.34161377 C402.43817984 702.25935759 402.22557675 699.17649885 402.015625 696.09326172 C398.672765 647.5774003 392.64407654 599.1791286 384.4375 551.25 C384.28559204 550.36260132 384.13368408 549.47520264 383.97717285 548.56091309 C379.10218647 520.23730624 373.15869114 492.19099827 366.4375 464.25 C366.13552704 462.99313385 366.13552704 462.99313385 365.82745361 461.71087646 C343.61650849 369.57282243 310.45991417 277.1248015 237.4375 168.25 C236.99631836 167.67137207 236.55513672 167.09274414 236.10058594 166.49658203 C219.79506068 145.20327747 201.75526388 124.79650364 181.4375 107.25 C180.82793457 106.71777832 180.21836914 106.18555664 179.59033203 105.63720703 C162.82803878 91.0827408 144.21439652 78.36931643 124.4375 68.25 C123.72384277 67.88358398 123.01018555 67.51716797 122.27490234 67.13964844 C26.51647265 18.58898829 -89.93871353 40.00293394 -230.89697266 123.9609375 Z " fill="#F6921D" transform="translate(2108.5625,962.75)"/>
<path d="M0 0 C1.5033648 -0.00074084 3.00672944 -0.0019207 4.5100936 -0.0034965 C8.63296701 -0.00655275 12.75581559 -0.00340105 16.87868713 0.00078164 C21.36706505 0.00422601 25.85544054 0.0018431 30.34381896 0.00020415 C38.20730289 -0.00186708 46.07077923 -0.0002301 53.93426228 0.00384235 C65.62694761 0.0098811 77.31962818 0.01017781 89.01231479 0.00930037 C108.68193103 0.00798683 128.35154391 0.01132649 148.02115917 0.01731777 C167.49664483 0.02323472 186.97212908 0.0270837 206.44761562 0.02817059 C208.26398205 0.0282737 208.26398205 0.0282737 210.11704274 0.02837889 C216.26664345 0.02871722 222.41624416 0.0290186 228.56584487 0.02930576 C272.12383483 0.03140619 315.68182297 0.03814361 359.2398119 0.04760838 C401.55589253 0.05679268 443.87197266 0.06387636 486.18805408 0.06811619 C487.49241216 0.06824771 488.79677024 0.06837924 490.14065432 0.06851475 C503.23955004 0.06983327 516.33844575 0.07110909 529.43734147 0.07235361 C556.12132029 0.07488983 582.80529907 0.07771108 609.48927784 0.08070469 C611.32960853 0.08091062 611.32960853 0.08091062 613.20711763 0.08112072 C676.68938061 0.08824977 740.17164275 0.09961068 803.65390491 0.11193943 C804.99344754 0.11219954 804.99344754 0.11219954 806.36005164 0.1124649 C823.90566511 0.11587945 841.45127854 0.11948155 858.99689198 0.12304783 C858.99689198 36.75304783 858.99689198 73.38304783 858.99689198 111.12304783 C848.30252232 111.12891407 837.60815266 111.13478031 826.58971119 111.14082432 C819.33367886 111.14490676 812.07764654 111.14900294 804.82161427 111.15318394 C803.87901455 111.15372698 802.93641483 111.15427002 801.96525149 111.15482952 C739.54023111 111.19084798 677.11521523 111.23042177 614.69020557 111.28202915 C612.88192259 111.2835225 612.88192259 111.2835225 611.03710864 111.28504602 C584.83704771 111.30670521 558.63698738 111.32902795 532.4369276 111.35203411 C519.58818211 111.3633125 506.73943649 111.37444428 493.8906908 111.385499 C492.61209504 111.38660157 491.33349927 111.38770413 490.01615818 111.38884011 C448.58291632 111.42450034 407.14967527 111.45048198 365.71642359 111.47143751 C323.1337504 111.49302556 280.55109532 111.52439191 237.96843875 111.56803896 C231.95213908 111.57420109 225.9358393 111.58025158 219.91953945 111.58623409 C218.73546053 111.58741497 217.5513816 111.58859586 216.3314215 111.58981252 C197.28103314 111.60852451 178.2306535 111.61694712 159.18025707 111.62150907 C140.0221234 111.62631687 120.86402293 111.64199532 101.70590707 111.66871349 C90.32767931 111.6842529 78.94951707 111.6915139 67.5712793 111.68681712 C59.96260638 111.68449903 52.3539952 111.69308188 44.74534173 111.71037194 C40.41516997 111.71990448 36.08513466 111.7248462 31.7549574 111.71644346 C3.16063634 111.6663501 -27.83768248 111.64517496 -50.35076427 132.34179783 C-60.14161889 142.89647798 -65.4375191 154.17388845 -65.27654552 168.54882908 C-64.30478138 181.25117464 -58.47077728 192.17343275 -49.31560802 200.87304783 C-41.32578674 207.5931224 -32.89696221 212.06951303 -23.06560802 215.43554783 C-22.01179943 215.799426 -22.01179943 215.799426 -20.93670177 216.17065525 C-8.70185283 220.10388112 3.73825377 220.41603608 16.46002674 220.39428806 C18.18004062 220.39868568 19.90005237 220.40399156 21.62006092 220.41012669 C25.30192899 220.42155537 28.98374007 220.4270809 32.66562557 220.42800808 C38.51746816 220.42996782 44.36919529 220.44812883 50.22099781 220.46876621 C64.76544475 220.51771525 79.30992306 220.54868053 93.85443592 220.57006931 C105.1477558 220.586708 116.44097592 220.60986206 127.73422951 220.65309006 C132.58409548 220.67107652 137.43382641 220.68351143 142.2837286 220.68179226 C217.67101225 220.66295035 289.58376724 237.88120781 344.38751698 292.50586033 C371.42391557 321.19556387 384.14197995 357.17758515 383.13312244 396.22851658 C381.35865285 433.93122541 360.22258501 466.60210223 333.84845448 492.20898533 C331.94601775 493.91877024 329.99858558 495.53054021 327.99689198 497.12304783 C326.62210682 498.23679783 326.62210682 498.23679783 325.21954823 499.37304783 C281.07501628 534.58656468 223.41009593 553.36770757 167.12099171 553.24330235 C165.63894418 553.24373918 164.15689673 553.24461614 162.67484969 553.24589151 C158.62933067 553.24811446 154.58383842 553.2441455 150.53832281 553.23911345 C146.16560552 553.23477737 141.79288962 553.23625761 137.42017078 553.23701572 C129.85308254 553.23753896 122.28600296 553.23441308 114.71891689 553.22877789 C103.7783073 553.22063575 92.83770186 553.21804488 81.89708956 553.21678989 C64.14479151 553.21460364 46.39249807 553.20795511 28.64020252 553.19848728 C11.39996838 553.18930214 -5.84026451 553.1822267 -23.0805006 553.17797947 C-24.14396807 553.17771675 -25.20743553 553.17745402 -26.30312928 553.17718334 C-31.63846573 553.17587826 -36.97380219 553.17461456 -42.30913866 553.17337143 C-86.54046587 553.1630121 -130.77178456 553.14458094 -175.00310802 553.12304783 C-175.00310802 516.49304783 -175.00310802 479.86304783 -175.00310802 442.12304783 C-159.66366711 442.09331882 -159.66366711 442.09331882 -144.01433849 442.06298923 C-111.26822139 441.99813752 -78.5221327 441.92360199 -45.77605074 441.84299622 C-40.68686038 441.83047783 -35.59766982 441.81804498 -30.50847912 441.80566502 C-29.49534244 441.80319902 -28.48220577 441.80073303 -27.43836798 441.79819231 C-11.04872373 441.75850344 5.34092737 441.72573898 21.73059155 441.69554801 C38.55656437 441.66439865 55.38250815 441.6257744 72.20844829 441.58025777 C82.58513395 441.55242151 92.96179844 441.53036745 103.33851133 441.51578532 C110.46089881 441.50521704 117.58324522 441.48736703 124.70560171 441.46388079 C128.81053775 441.45055684 132.91541643 441.44035723 137.02037525 441.43883419 C140.78739541 441.43736523 144.55427773 441.42663892 148.32125543 441.40891342 C150.31112271 441.40185587 152.3010171 441.40438086 154.29089463 441.40738356 C177.39509551 441.26509674 200.9558373 435.72715238 217.99689198 419.12304783 C227.18949635 408.51252008 231.41490412 397.79441894 231.27032948 383.85742283 C230.33357314 371.06400776 223.44607669 360.74510261 214.34454823 352.06445408 C197.284364 337.95644816 176.95482229 333.65211613 155.38580799 333.72241306 C153.76903245 333.71665421 152.1522612 333.70956483 150.53549671 333.70126438 C147.07898509 333.68626196 143.62262683 333.68036755 140.16608334 333.68179226 C134.66615569 333.68384984 129.1664288 333.66409343 123.66655445 333.64161777 C112.95373946 333.60079361 102.24094075 333.58210872 91.52806568 333.5654459 C77.9556092 333.54305245 64.3832009 333.50881291 50.81082004 333.45824677 C46.25543922 333.44184544 41.70013289 333.42965537 37.14472103 333.42800808 C-31.78425978 333.40232529 -98.76962324 324.58452112 -155.00310802 281.12304783 C-155.93252209 280.4192197 -156.86193615 279.71539158 -157.81951427 278.99023533 C-188.26314484 255.12533268 -211.21048877 221.02913827 -216.46404552 182.28320408 C-220.74728634 145.42330172 -209.46701575 111.28632158 -186.68279552 82.45214939 C-147.12785084 33.1530407 -85.38230348 7.9094653 -23.8111244 0.87252716 C-15.86846946 0.05411793 -7.97783135 -0.0157527 0 0 Z " fill="#F7931E" transform="translate(1893.0031080245972,2528.8769521713257)"/>
<path d="M0 0 C1.04752441 0.25475098 2.09504883 0.50950195 3.17431641 0.77197266 C67.23228546 16.57102332 128.94792656 46.018614 177.73046875 90.91796875 C179.23374214 92.29704744 180.75725837 93.65440494 182.30078125 94.98828125 C194.9417202 105.97410544 206.03146257 118.57213135 216 132 C216.42619629 132.56928223 216.85239258 133.13856445 217.29150391 133.72509766 C223.80434544 142.46556263 229.62556204 151.51930287 235 161 C235.56267578 161.98758301 235.56267578 161.98758301 236.13671875 162.99511719 C252.60035093 192.17170767 264.01899041 226.6211718 264.203125 260.328125 C264.21018463 261.19106674 264.21724426 262.05400848 264.22451782 262.94309998 C264.45159451 298.83674513 264.45159451 298.83674513 261 314 C260.80664062 314.88461914 260.61328125 315.76923828 260.4140625 316.68066406 C249.2638865 366.49510778 222.49436251 408.49925868 186.875 444.375 C185.96878906 445.29063721 185.06257813 446.20627441 184.12890625 447.1496582 C178.05815747 453.19130517 171.69768009 458.6686309 165 464 C163.79152609 465.00060052 162.58539536 466.00404567 161.3828125 467.01171875 C144.56658979 480.91200996 125.92392286 492.22563292 107 503 C106.30616211 503.39993164 105.61232422 503.79986328 104.89746094 504.21191406 C49.74051526 535.78182498 -15.19654324 551.21628183 -78 557 C-79.63207397 557.1546875 -79.63207397 557.1546875 -81.29711914 557.3125 C-94.76856675 558.40149468 -108.30671014 558.24389131 -121.8125 558.25 C-122.479897 558.25044186 -123.14729401 558.25088371 -123.83491516 558.25133896 C-145.04119122 558.25869281 -165.9555389 557.80903407 -187 555 C-187.65135925 554.91514343 -188.30271851 554.83028687 -188.97381592 554.74285889 C-267.44032255 544.50085979 -344.75688925 516.69409649 -407 467 C-407.9178125 466.27554688 -408.835625 465.55109375 -409.78125 464.8046875 C-426.90468573 451.07641575 -443.6517732 435.4553735 -457 418 C-458.19109375 416.49953125 -458.19109375 416.49953125 -459.40625 414.96875 C-497.55483283 366.71830986 -516.61420292 307.06217002 -509.8125 245.6875 C-502.24975 183.85116862 -467.34464149 128.55156131 -421 88 C-420.0203125 87.13246094 -419.040625 86.26492187 -418.03125 85.37109375 C-398.16933239 68.01928588 -375.95668012 53.85613312 -353 41 C-352.3100293 40.61102539 -351.62005859 40.22205078 -350.90917969 39.82128906 C-301.36579404 12.07795558 -244.09695439 -3.62263053 -188.02453613 -10.74285889 C-186.07272869 -10.99076256 -184.12179217 -11.24549388 -182.17089844 -11.50048828 C-121.74924616 -19.06297052 -59.03732579 -14.48894854 0 0 Z M-173 100 C-174.08458496 100.17740723 -175.16916992 100.35481445 -176.28662109 100.53759766 C-219.71349196 107.79695974 -263.8537495 124.73351153 -298 153 C-298.57733887 153.4758252 -299.15467773 153.95165039 -299.74951172 154.44189453 C-312.29567079 164.84115351 -323.32936574 175.86531023 -333 189 C-333.42812988 189.5784668 -333.85625977 190.15693359 -334.29736328 190.75292969 C-355.85762854 220.30185806 -365.40620617 256.65885449 -359.8125 292.9375 C-354.18353408 325.7475017 -336.62018994 352.3119041 -314 376 C-313.39800781 376.65484375 -312.79601563 377.3096875 -312.17578125 377.984375 C-306.44266694 384.04963448 -299.63426021 388.97479543 -293 394 C-292.44957031 394.4218457 -291.89914063 394.84369141 -291.33203125 395.27832031 C-259.62823633 419.43998968 -220.09309511 434.8886318 -181 442 C-180.19981445 442.14872559 -179.39962891 442.29745117 -178.57519531 442.45068359 C-105.30822216 455.70046225 -23.10351788 442.98271624 38.73217773 400.1315918 C75.25017154 374.1741116 104.51719817 338.93638458 113.25 294.125 C117.74486488 266.01089228 113.48991165 238.50296096 101 213 C100.70254883 212.37673828 100.40509766 211.75347656 100.09863281 211.11132812 C94.96860455 200.45196129 88.4016943 191.19941411 81 182 C80.5045166 181.38205566 80.0090332 180.76411133 79.49853516 180.12744141 C42.48874257 134.41808715 -16.12267707 109.38107676 -73 100 C-73.9398877 99.83628906 -74.87977539 99.67257813 -75.84814453 99.50390625 C-107.01103904 94.26589932 -141.89692514 94.53628908 -173 100 Z " fill="#29ABE2" transform="translate(3581,2536)"/>
<path d="M0 0 C49.83 0 99.66 0 151 0 C151 182.49 151 364.98 151 553 C101.17 553 51.34 553 0 553 C0 480.4 0 407.8 0 333 C-98.34 333 -196.68 333 -298 333 C-298 479.85 -298 626.7 -298 778 C-348.16 778 -398.32 778 -450 778 C-450 594.52 -450 411.04 -450 222 C-275.71225542 220.84577653 -275.71225542 220.84577653 -223.31271672 220.89860606 C-216.16564408 220.90516476 -209.01856876 220.90525968 -201.87149363 220.90625793 C-187.86834602 220.90836084 -173.86520476 220.91475855 -159.86206055 220.92456055 C-146.39200875 220.93397858 -132.92195879 220.94092214 -119.4519043 220.94506836 C-118.1592556 220.94547036 -118.1592556 220.94547036 -116.84049278 220.94588047 C-110.08471412 220.94796415 -103.32893543 220.94991958 -96.57315671 220.95183504 C-64.38209859 220.96099386 -32.19105673 220.9811687 0 221 C0 148.07 0 75.14 0 0 Z " fill="#29ABE2" transform="translate(2822,2529)"/>
<path d="M0 0 C41.01982433 -0.06631129 82.03959752 -0.12163603 123.05946023 -0.15319599 C127.9177327 -0.15694748 132.77600505 -0.1608305 137.63427734 -0.16479492 C139.084884 -0.16597532 139.084884 -0.16597532 140.56479584 -0.16717956 C156.16120811 -0.18018343 171.75758672 -0.20380915 187.35397913 -0.23145839 C203.39351791 -0.2596531 219.43303923 -0.27620575 235.47260177 -0.28226548 C245.34564925 -0.28635298 255.21860157 -0.29919507 265.09161972 -0.3237494 C271.88986025 -0.33978091 278.68805261 -0.34436168 285.48631062 -0.34050413 C289.39075586 -0.3386092 293.29503656 -0.34121556 297.19945145 -0.35761642 C381.93468048 -0.69514772 470.32772314 23.37866762 533.32421875 82.51171875 C535.56621418 84.59661085 537.8467535 86.59110206 540.1875 88.5625 C544.88965768 92.6660257 548.95719484 97.25465366 553 102 C553.45391113 102.53093262 553.90782227 103.06186523 554.37548828 103.60888672 C579.40962082 133.13915285 598.95800609 171.78719961 599.203125 211.20703125 C599.21018463 211.96578552 599.21724426 212.72453979 599.22451782 213.50628662 C599.45427847 245.44668995 599.45427847 245.44668995 596 259 C595.80132324 259.79003418 595.60264648 260.58006836 595.39794922 261.39404297 C586.68143823 294.93465491 568.95270042 324.11294871 545 349 C544.39881348 349.62841797 543.79762695 350.25683594 543.17822266 350.90429688 C534.86126101 359.55410445 526.38902538 367.58357168 516.72998047 374.71435547 C514.99037508 376.00715281 513.27761906 377.330075 511.56640625 378.66015625 C451.54396611 424.73336799 372.33122716 443.29939749 297.81005859 443.11352539 C296.18180849 443.11324226 294.55355826 443.11340369 292.92530823 443.1139679 C288.56906347 443.11425098 284.21284711 443.10843446 279.85660887 443.10139394 C275.2802721 443.0950779 270.70393445 443.09455015 266.12759399 443.09336853 C257.49023285 443.09027927 248.85288459 443.0820988 240.21552908 443.07201904 C228.52366353 443.05867529 216.83179436 443.05333854 205.1399231 443.04751682 C186.75993911 443.03815689 168.37998229 443.01822206 150 443 C150 479.3 150 515.6 150 553 C100.5 553 51 553 0 553 C0 480.07 0 407.14 0 332 C21.58277344 331.95101562 43.16554688 331.90203125 65.40234375 331.8515625 C79.09700901 331.81616611 92.79167053 331.78029143 106.48632812 331.7421875 C113.68497681 331.7221831 120.88362582 331.70229925 128.08227539 331.68261719 C128.98435897 331.68014575 129.88644255 331.67767431 130.815862 331.67512798 C145.32997097 331.63553903 159.8440876 331.60273953 174.35821872 331.57250018 C189.28243601 331.54125335 204.20662115 331.5025888 219.13080221 331.45720994 C228.32053475 331.42949603 237.51024411 331.40739006 246.70000691 331.39273749 C253.02400186 331.38209677 259.34795161 331.36417325 265.67191231 331.34083296 C269.30632508 331.3276246 272.94067527 331.31732792 276.5751133 331.31578636 C326.24232495 331.2873071 373.73542609 324.92687831 413 292 C413.84111328 291.34257812 413.84111328 291.34257812 414.69921875 290.671875 C432.85048333 276.37954069 444.83663046 252.80203855 447.75 230.125 C447.85448191 228.75144513 447.9387781 227.37616181 448 226 C448.03996094 225.32324219 448.07992187 224.64648438 448.12109375 223.94921875 C448.84524704 200.64852173 439.19839199 179.11506309 424 162 C423.38769531 161.24460937 422.77539062 160.48921875 422.14453125 159.7109375 C397.42572449 129.87971229 354.23191027 116.22473502 317.09312421 112.65514433 C304.59510609 111.57905929 292.05764732 111.68852207 279.52338111 111.68332577 C275.75886635 111.67957407 271.99439357 111.66439147 268.22990417 111.65071106 C261.73304896 111.6286124 255.23620903 111.61349552 248.73932457 111.60334396 C239.34633251 111.58865673 229.9533938 111.56309301 220.56043337 111.53501268 C205.31496135 111.48972539 190.06948157 111.45303664 174.82397461 111.421875 C160.02871339 111.39161497 145.23347106 111.35723093 130.43823242 111.31738281 C129.06651625 111.31369049 129.06651625 111.31369049 127.66708865 111.30992357 C123.07867784 111.29754753 118.49026726 111.28509128 113.90185678 111.27259517 C75.93459364 111.16929833 37.96731716 111.08161233 0 111 C0 74.37 0 37.74 0 0 Z " fill="#29ABE2" transform="translate(3943,2529)"/>
<path d="M0 0 C1.47339844 0.02900391 1.47339844 0.02900391 2.9765625 0.05859375 C22.25392542 1.12239471 39.51096179 12.82769615 52.578125 26.19921875 C66.88150307 42.74038339 72.915092 63.52226685 71.90234375 85.07861328 C70.32864226 105.61239144 61.5672132 122.82931552 47 137 C46.22398437 137.76183594 45.44796875 138.52367187 44.6484375 139.30859375 C28.87490011 154.05099884 9.06291449 159.06489454 -12 159 C-33.8736509 157.76960714 -52.87943202 148.00374208 -67.75 132.125 C-80.53559529 117.26544897 -87.43896872 99.3819777 -87.3125 79.75 C-87.30512817 78.37920288 -87.30512817 78.37920288 -87.29760742 76.98071289 C-86.92966912 55.5440612 -78.00829219 35.35224841 -62.56835938 20.43164062 C-44.55284314 3.9865928 -23.79569251 -0.81182774 0 0 Z " fill="#000000" transform="translate(1502,1710)"/>
<path d="M0 0 C1.13655029 -0.01023193 2.27310059 -0.02046387 3.4440918 -0.03100586 C10.82298604 0.04582964 17.25537486 1.108055 24.25 3.4375 C25.26610352 3.76584839 25.26610352 3.76584839 26.30273438 4.10083008 C46.09311977 10.81018957 61.25232215 24.12379147 71.25 42.4375 C80.46413523 61.63323662 82.50464287 84.00193711 75.97753906 104.390625 C68.48238438 125.47766423 54.10415246 141.79678574 34.01171875 151.74609375 C16.30002723 160.01826397 -5.27209361 161.35925199 -24.0078125 155.828125 C-35.10597886 151.70396297 -44.96470742 146.47612214 -53.75 138.4375 C-54.77287109 137.55191406 -54.77287109 137.55191406 -55.81640625 136.6484375 C-70.92180619 122.75501682 -78.77303893 102.29756959 -79.875 82.15234375 C-80.42828899 60.88529806 -73.14396965 41.1570297 -59.4375 25.0625 C-43.157361 8.07820274 -23.1631963 0.16151982 0 0 Z " fill="#000000" transform="translate(2501.75,2029.5625)"/>
<path d="M0 0 C1.19431641 0.00418945 2.38863281 0.00837891 3.61914062 0.01269531 C16.84341565 0.18113459 28.65308653 2.18531895 40.9375 7.3125 C38.04683941 17.87058656 38.04683941 17.87058656 34.9375 22.3125 C26.75458543 20.50948492 26.75458543 20.50948492 22.76171875 19.546875 C8.98786644 16.24503496 -7.58796408 13.01581504 -20.5 20.6875 C-24.42182372 23.37584691 -26.54546295 25.76138884 -28.0625 30.3125 C-28.62634129 36.00512838 -28.36969906 40.46194138 -25.0625 45.3125 C-16.16045459 54.21454541 -3.29565405 57.49244731 8.33007812 61.38671875 C21.49429132 65.93107728 35.7053507 71.45971379 42.375 84.5625 C45.66571916 93.05986814 45.91274594 102.70357079 42.9375 111.3125 C38.60560349 121.04463236 31.95227779 126.68320201 22.375 131.0625 C-0.39760482 139.75280133 -28.31374896 138.4664198 -51.0625 130.3125 C-51.0625 124.7025 -51.0625 119.0925 -51.0625 113.3125 C-46.66851462 114.27165905 -42.29099128 115.23879474 -37.94140625 116.3828125 C-28.43805241 118.77049572 -19.3038024 119.70958919 -9.5 119.75 C-7.87783569 119.76474365 -7.87783569 119.76474365 -6.22290039 119.77978516 C2.94113038 119.68221273 11.70247264 118.34168947 18.9375 112.3125 C22.94141819 107.65929778 24.16268163 103.34122632 23.9375 97.3125 C23.18498003 92.50862254 21.37462863 89.28536915 17.625 86.1875 C9.7006051 80.8711338 0.55727797 77.8279981 -8.42382812 74.80664062 C-22.95241486 69.90503252 -38.9177119 64.47952668 -46.5 50.0625 C-50.17754292 42.08074766 -50.67722903 31.62569552 -48.12109375 23.21484375 C-45.83346603 18.46030714 -43.10838324 14.75150076 -39.0625 11.3125 C-38.30453125 10.6628125 -37.5465625 10.013125 -36.765625 9.34375 C-34.01035469 7.27331566 -31.49416761 5.99215206 -28.3125 4.6875 C-26.86617187 4.08035156 -26.86617187 4.08035156 -25.390625 3.4609375 C-16.89082615 0.52790832 -8.97417394 -0.0427821 0 0 Z " fill="#000000" transform="translate(3525.0625,3172.6875)"/>
<path d="M0 0 C10.49660156 7.56820185 14.83842849 16.69047114 17.671875 29.00390625 C18.44552184 35.37477074 18.1875 41.83233347 18.1875 48.25 C-7.2225 48.25 -32.6325 48.25 -58.8125 48.25 C-57.09325226 59.04423376 -57.09325226 59.04423376 -52.8125 68.25 C-52.47605469 68.9615625 -52.13960937 69.673125 -51.79296875 70.40625 C-50.49325931 72.85032512 -49.34517293 73.15479008 -46.8125 74.25 C-43.5625 76.25 -43.5625 76.25 -41.984375 77.25 C-35.84669305 80.07598306 -29.59457498 80.6375592 -22.9375 80.625 C-21.71389771 80.6247583 -21.71389771 80.6247583 -20.46557617 80.62451172 C-11.61024458 80.46277828 -3.33332716 78.50401455 5.1875 76.25 C6.69342671 75.87007465 8.1999217 75.49239326 9.70703125 75.1171875 C10.85558594 74.83101562 12.00414063 74.54484375 13.1875 74.25 C13.1875 79.2 13.1875 84.15 13.1875 89.25 C8.63447351 91.52651324 5.59914876 92.82031468 0.8125 93.875 C-0.24710938 94.11476563 -1.30671875 94.35453125 -2.3984375 94.6015625 C-22.69266811 98.45607312 -43.99380939 97.53517072 -61.8125 86.25 C-71.05817388 79.18695588 -76.08694596 69.4283736 -78.8125 58.25 C-80.90370977 41.3685405 -79.92870744 24.49687248 -69.4375 10.375 C-52.81722633 -9.42635831 -21.98573314 -13.36674141 0 0 Z M-51.1875 15.3125 C-55.57802871 20.6717891 -58.8125 27.22058557 -58.8125 34.25 C-40.3325 34.25 -21.8525 34.25 -2.8125 34.25 C-2.8125 26.21516729 -4.43936674 21.14871893 -8.5625 14.375 C-15.48712971 7.83507194 -23.75798286 6.782855 -32.9453125 6.984375 C-40.6481957 7.51346193 -45.78637858 9.78254449 -51.1875 15.3125 Z " fill="#000000" transform="translate(3262.8125,3212.75)"/>
<path d="M0 0 C10.53348316 8.06203485 15.37770223 17.86988581 17.30078125 30.9609375 C17.69143915 36.52343961 17.5625 42.11129669 17.5625 47.6875 C-7.8475 47.6875 -33.2575 47.6875 -59.4375 47.6875 C-56.86228299 63.2595336 -56.86228299 63.2595336 -46.62109375 74.03125 C-39.40192012 78.89112422 -32.1142025 80.07863529 -23.5625 80.0625 C-22.74749023 80.06233887 -21.93248047 80.06217773 -21.09277344 80.06201172 C-9.79894974 79.85560286 0.7721592 76.77045451 11.5625 73.6875 C11.5625 78.9675 11.5625 84.2475 11.5625 89.6875 C-10.04059481 96.80939939 -34.59801228 99.74476727 -55.8125 89.5625 C-68.04724767 82.94800324 -74.21193661 73.9033954 -78.75 60.9375 C-82.26890543 44.30267432 -80.98291935 27.1919485 -72.05859375 12.40234375 C-65.09245526 2.55104708 -55.51835066 -4.13792979 -43.73974609 -6.91772461 C-28.84692861 -9.47145588 -12.78843634 -8.37472822 0 0 Z M-52.96875 15.69921875 C-57.20567983 21.43484983 -58.42843162 26.62402134 -59.4375 33.6875 C-40.9575 33.6875 -22.4775 33.6875 -3.4375 33.6875 C-4.5745698 22.31680196 -5.98876451 17.31696611 -14.2421875 10.1328125 C-26.04783369 2.36041198 -43.71129859 5.50292203 -52.96875 15.69921875 Z " fill="#000000" transform="translate(3436.4375,3213.3125)"/>
<path d="M0 0 C8.84475516 6.76952943 13.84565648 14.82012592 16.5625 25.6875 C16.5625 32.9475 16.5625 40.2075 16.5625 47.6875 C-21.0575 48.1825 -21.0575 48.1825 -59.4375 48.6875 C-56.8527835 63.13318006 -56.8527835 63.13318006 -48.10546875 73.49609375 C-40.30843925 78.49050435 -32.68667913 80.07971543 -23.5625 80.0625 C-22.74749023 80.06233887 -21.93248047 80.06217773 -21.09277344 80.06201172 C-9.79894974 79.85560286 0.7721592 76.77045451 11.5625 73.6875 C11.5625 78.9675 11.5625 84.2475 11.5625 89.6875 C-10.04059481 96.80939939 -34.59801228 99.74476727 -55.8125 89.5625 C-67.73778342 83.11530953 -74.59966073 74.2007112 -78.46875 61.23046875 C-82.45113119 44.50815516 -81.06069498 27.32084012 -72.05859375 12.40234375 C-65.09245526 2.55104708 -55.51835066 -4.13792979 -43.73974609 -6.91772461 C-28.84692861 -9.47145588 -12.78843634 -8.37472822 0 0 Z M-52.96875 15.69921875 C-57.20567983 21.43484983 -58.42843162 26.62402134 -59.4375 33.6875 C-40.9575 33.6875 -22.4775 33.6875 -3.4375 33.6875 C-4.5745698 22.31680196 -5.98876451 17.31696611 -14.2421875 10.1328125 C-26.04783369 2.36041198 -43.71129859 5.50292203 -52.96875 15.69921875 Z " fill="#000000" transform="translate(3959.4375,3213.3125)"/>
<path d="M0 0 C10.21175765 7.48741948 16.24807807 18.02641723 18.76953125 30.3515625 C20.95656678 46.55110887 19.21714025 63.09383848 9.71875 76.76953125 C0.94297779 87.72874918 -12.12685054 93.0372837 -25.7890625 94.62109375 C-40.91525362 95.6164526 -55.25128905 93.7897918 -67.7890625 84.62109375 C-68.8409375 83.87859375 -69.8928125 83.13609375 -70.9765625 82.37109375 C-81.2050027 72.36995222 -85.83536138 60.09460051 -86.03051758 45.9675293 C-86.07981616 29.18488375 -83.75018835 16.32581671 -72.0234375 3.6953125 C-53.65782372 -13.35388491 -20.25614172 -13.14354827 0 0 Z M-57.48046875 14.26953125 C-65.81945117 24.17599157 -66.87544994 37.06520707 -66.01660156 49.48339844 C-64.90744819 59.90372775 -60.81225157 67.73009387 -53.4140625 74.93359375 C-47.1281441 78.97454129 -41.23985951 80.15672112 -33.9140625 80.05859375 C-32.73215332 80.04832153 -32.73215332 80.04832153 -31.52636719 80.0378418 C-23.57075426 79.81903786 -16.18012122 77.90616217 -10.1640625 72.3515625 C-1.32958699 61.23317428 0.37677883 47.6883762 -1.06640625 33.98828125 C-2.65844759 24.31473485 -6.64007299 16.50582025 -14.2734375 10.25 C-27.06103364 1.96983294 -46.59398476 3.65960921 -57.48046875 14.26953125 Z " fill="#000000" transform="translate(2774.7890625,3214.37890625)"/>
<path d="M0 0 C11.07283335 8.74080136 16.54289986 20.15830817 18.50390625 33.9765625 C19.71314243 50.49174702 16.78611236 64.45782035 7.25390625 78.2265625 C-4.32550549 89.80597424 -18.15373187 93.88147857 -34.18359375 94.3515625 C-46.58906692 94.32489044 -58.40683395 91.42161109 -68.49609375 83.9765625 C-69.12773437 83.53699219 -69.759375 83.09742187 -70.41015625 82.64453125 C-79.80590871 75.46319622 -84.45892186 64.30607936 -86.49609375 52.9765625 C-87.68874038 36.31570027 -87.03561962 20.72274501 -76.49609375 6.9765625 C-57.92961414 -13.65696056 -22.27988447 -15.2424246 0 0 Z M-58.0859375 13.73046875 C-66.90649086 24.75076892 -67.34541196 37.43617753 -66.49609375 50.9765625 C-65.05191218 60.7105737 -60.99354649 68.18157256 -53.6328125 74.65234375 C-47.57074933 78.40927138 -41.6743831 79.50853969 -34.62109375 79.4140625 C-33.43918457 79.40379028 -33.43918457 79.40379028 -32.23339844 79.39331055 C-24.28210353 79.17462537 -16.87727648 77.26566923 -10.87109375 71.703125 C-3.05978265 61.89460367 -0.38973543 49.26943277 -1.49609375 36.9765625 C-2.91050149 26.56461982 -5.51274525 18.28115512 -13.43359375 11.1015625 C-26.1855254 2.2532834 -47.03064664 1.53433707 -58.0859375 13.73046875 Z " fill="#000000" transform="translate(3752.49609375,3215.0234375)"/>
<path d="M0 0 C1.06460449 0.00161133 2.12920898 0.00322266 3.22607422 0.00488281 C15.03574132 0.1893806 24.78322735 2.67819382 33.375 11.3125 C41.11301688 21.11645381 40.80394634 33.75688698 40.640625 45.61328125 C40.63314427 47.231372 40.62746003 48.84947194 40.62347412 50.46757507 C40.60836159 54.68120309 40.56920841 58.89426018 40.5246582 63.10766602 C40.48339082 67.42521446 40.46539664 71.74285714 40.4453125 76.06054688 C40.40269624 84.4989863 40.3324688 92.93685588 40.25 101.375 C33.98 101.375 27.71 101.375 21.25 101.375 C21.23541748 99.39773926 21.22083496 97.42047852 21.20581055 95.38330078 C21.15396138 88.81737335 21.08862328 82.2516859 21.01428509 75.68597603 C20.96974224 71.70896596 20.9304518 67.73205454 20.90356445 63.75488281 C20.8773695 59.9097035 20.83685585 56.06490715 20.78681374 52.21996689 C20.77025359 50.76016921 20.75867226 49.30030547 20.75238609 47.8404274 C20.81621635 33.79669353 20.81621635 33.79669353 14.9375 21.4375 C7.27268762 15.55520213 -0.35453878 14.70045407 -9.75 15.375 C-16.24441665 16.46273481 -22.93409674 17.6737611 -27.75 22.375 C-32.1394244 29.77372245 -34.83499143 36.01724506 -34.95532227 44.61230469 C-34.97526749 45.87330994 -34.99521271 47.13431519 -35.01576233 48.43353271 C-35.03274401 49.80464557 -35.04962291 51.1757597 -35.06640625 52.546875 C-35.08698835 53.95363967 -35.10798515 55.36039833 -35.12937927 56.76715088 C-35.18447035 60.46273927 -35.23393655 64.15838226 -35.28222656 67.85406494 C-35.33253649 71.62801959 -35.38817293 75.40189532 -35.44335938 79.17578125 C-35.55078231 86.57545575 -35.65176973 93.97519671 -35.75 101.375 C-42.35 101.375 -48.95 101.375 -55.75 101.375 C-55.75 68.375 -55.75 35.375 -55.75 1.375 C-50.47 1.375 -45.19 1.375 -39.75 1.375 C-38.52309928 5.89919641 -37.61808377 9.66723955 -37.75 14.375 C-37.28851562 13.92769531 -36.82703125 13.48039062 -36.3515625 13.01953125 C-25.60173312 3.05575659 -14.38918552 -0.02251476 0 0 Z " fill="#000000" transform="translate(3115.75,3205.625)"/>
<path d="M0 0 C1.02480469 -0.01611328 2.04960937 -0.03222656 3.10546875 -0.04882812 C14.14158082 -0.05583963 23.31473733 2.57422312 31.8125 9.734375 C39.93610363 17.93921467 40.63221368 29.98530037 40.57818604 40.9153595 C40.55777291 42.46050596 40.53690917 44.00564654 40.515625 45.55078125 C40.50814427 47.168872 40.50246003 48.78697194 40.49847412 50.40507507 C40.48336159 54.61870309 40.44420841 58.83176018 40.3996582 63.04516602 C40.35839082 67.36271446 40.34039664 71.68035714 40.3203125 75.99804688 C40.27769624 84.4364863 40.2074688 92.87435588 40.125 101.3125 C33.855 101.3125 27.585 101.3125 21.125 101.3125 C21.11041748 99.33523926 21.09583496 97.35797852 21.08081055 95.32080078 C21.02896138 88.75487335 20.96362328 82.1891859 20.88928509 75.62347603 C20.84474224 71.64646596 20.8054518 67.66955454 20.77856445 63.69238281 C20.7523695 59.8472035 20.71185585 56.00240715 20.66181374 52.15746689 C20.64525359 50.69766921 20.63367226 49.23780547 20.62738609 47.7779274 C20.69121635 33.73419353 20.69121635 33.73419353 14.8125 21.375 C7.14768762 15.49270213 -0.47953878 14.63795407 -9.875 15.3125 C-16.36941665 16.40023481 -23.05909674 17.6112611 -27.875 22.3125 C-32.2644244 29.71122245 -34.95999143 35.95474506 -35.08032227 44.54980469 C-35.10026749 45.81080994 -35.12021271 47.07181519 -35.14076233 48.37103271 C-35.15774401 49.74214557 -35.17462291 51.1132597 -35.19140625 52.484375 C-35.21198835 53.89113967 -35.23298515 55.29789833 -35.25437927 56.70465088 C-35.30947035 60.40023927 -35.35893655 64.09588226 -35.40722656 67.79156494 C-35.45753649 71.56551959 -35.51317293 75.33939532 -35.56835938 79.11328125 C-35.67578231 86.51295575 -35.77676973 93.91269671 -35.875 101.3125 C-42.475 101.3125 -49.075 101.3125 -55.875 101.3125 C-55.875 68.3125 -55.875 35.3125 -55.875 1.3125 C-50.595 1.3125 -45.315 1.3125 -39.875 1.3125 C-38.64809928 5.83669641 -37.74308377 9.60473955 -37.875 14.3125 C-37.41351562 13.86519531 -36.95203125 13.41789062 -36.4765625 12.95703125 C-25.64557264 2.91803077 -14.47485534 -0.04517745 0 0 Z " fill="#000000" transform="translate(2877.875,3205.6875)"/>
<path d="M0 0 C3.96 0 7.92 0 12 0 C12 7.26 12 14.52 12 22 C22.89 22 33.78 22 45 22 C45 26.62 45 31.24 45 36 C34.11 36 23.22 36 12 36 C12.06772236 43.67831414 12.13826125 51.3557166 12.2355423 59.03356934 C12.28005586 62.60959705 12.31952051 66.1855116 12.34643555 69.76171875 C12.37259851 73.21139862 12.4130901 76.66064928 12.46318626 80.11006165 C12.48779316 82.05516814 12.49786607 84.00044115 12.50764465 85.94567871 C12.61779023 92.62670411 12.95668561 97.99288243 16 104 C24.88242672 110.92829284 35.38108029 108.92786677 46 108 C46 112.29 46 116.58 46 121 C33.80035146 125.06654951 20.11796311 125.97768638 8 121 C1.02495763 117.36224713 -3.54275808 113.38878022 -6.08346558 105.73692322 C-6.99021097 102.03991213 -7.24162307 98.94281063 -7.22705078 95.14672852 C-7.22734283 94.50197067 -7.22763489 93.85721283 -7.22793579 93.19291687 C-7.22655626 91.08810374 -7.21106128 88.98365658 -7.1953125 86.87890625 C-7.19157745 85.40917657 -7.1887328 83.93944438 -7.18673706 82.4697113 C-7.1791393 78.62115477 -7.15952447 74.77275171 -7.1373291 70.92425537 C-7.11678708 66.98923823 -7.10771755 63.05419605 -7.09765625 59.11914062 C-7.07627448 51.4126827 -7.04112433 43.7063825 -7 36 C-12.28 36 -17.56 36 -23 36 C-23 33.03 -23 30.06 -23 27 C-21.27398621 26.18082358 -19.5440353 25.36993984 -17.8125 24.5625 C-16.84957031 24.11003906 -15.88664062 23.65757812 -14.89453125 23.19140625 C-12.23368414 22.09618578 -9.83215245 21.45045204 -7 21 C-6.82984375 20.32195313 -6.6596875 19.64390625 -6.484375 18.9453125 C-4.77617474 12.38509661 -2.62652595 6.24932037 0 0 Z " fill="#000000" transform="translate(3605,3185)"/>
<path d="M0 0 C6.27 0 12.54 0 19 0 C19 46.53 19 93.06 19 141 C12.73 141 6.46 141 0 141 C0 94.47 0 47.94 0 0 Z " fill="#000000" transform="translate(2952,3166)"/>
<path d="M0 0 C1.06992188 0.00902344 2.13984375 0.01804687 3.2421875 0.02734375 C5.87002439 0.05080658 8.49739406 0.08363541 11.125 0.125 C12.33752783 3.76258348 11.89404873 5.97620898 11.3125 9.75 C11.14105469 10.91789062 10.96960937 12.08578125 10.79296875 13.2890625 C10.46232422 14.69285156 10.46232422 14.69285156 10.125 16.125 C7.07274767 17.65112616 4.46759181 16.61021494 1.125 16.125 C-8.19410355 15.51391124 -16.18955741 17.8922788 -23.83203125 23.31640625 C-30.58393325 29.29371146 -34.04536723 37.27768379 -34.875 46.125 C-35.06708053 50.3621258 -35.13067044 54.59904214 -35.19140625 58.83984375 C-35.21218735 60.05072159 -35.23296844 61.26159943 -35.25437927 62.50917053 C-35.31953024 66.3602251 -35.37859914 70.21134527 -35.4375 74.0625 C-35.480718 76.68034521 -35.52433332 79.29818388 -35.56835938 81.91601562 C-35.67517622 88.31894393 -35.77654006 94.72193795 -35.875 101.125 C-42.145 101.125 -48.415 101.125 -54.875 101.125 C-54.875 68.125 -54.875 35.125 -54.875 1.125 C-49.595 1.125 -44.315 1.125 -38.875 1.125 C-37.39 9.045 -37.39 9.045 -35.875 17.125 C-34.39 15.578125 -32.905 14.03125 -31.375 12.4375 C-21.62470946 2.70098105 -13.71003659 -0.21949566 0 0 Z " fill="#000000" transform="translate(3853.875,3205.875)"/>
<path d="M0 0 C6.27 0 12.54 0 19 0 C19 33 19 66 19 100 C12.73 100 6.46 100 0 100 C0 67 0 34 0 0 Z " fill="#000000" transform="translate(3006,3207)"/>
<path d="M0 0 C2.92223218 3.85734648 3.07028861 7.33825243 2.5625 12.0625 C1.32717542 14.90374653 0.3069561 16.48347859 -2.125 18.375 C-6.86446232 19.78402934 -10.90994575 19.79306942 -15.3125 17.6875 C-18.62896409 15.1513804 -19.34736365 14.52069313 -20.1875 10.25 C-20.54650521 6.64689321 -20.34607256 4.24345427 -18.4375 1.0625 C-13.24045149 -3.78807861 -5.66536694 -4.50324039 0 0 Z " fill="#000000" transform="translate(3024.4375,3172.9375)"/>
</svg>
